<svg width="18" height="10" viewBox="0 0 18 10" fill="none" xmlns="http://www.w3.org/2000/svg">
<path d="M13.1667 0.833336H4.83332C2.53332 0.833336 0.666656 2.7 0.666656 5C0.666656 7.3 2.53332 9.16667 4.83332 9.16667H13.1667C15.4667 9.16667 17.3333 7.3 17.3333 5C17.3333 2.7 15.4667 0.833336 13.1667 0.833336ZM5.11666 6.325L4.44166 5.64167C4.32542 5.52406 4.26024 5.36536 4.26024 5.2C4.26024 5.03464 4.32542 4.87595 4.44166 4.75834C4.68332 4.51667 5.08332 4.51667 5.32499 4.75834L5.70832 5.14167L7.32499 3.525C7.57499 3.275 7.96666 3.28334 8.21666 3.525C8.45832 3.76667 8.45832 4.16667 8.21666 4.40834L6.30832 6.31667C5.97499 6.65 5.44166 6.65 5.11666 6.325Z" fill="white"/>
</svg>
