<svg width="16" height="18" viewBox="0 0 16 18" fill="none" xmlns="http://www.w3.org/2000/svg">
<path d="M10.9167 11.25C10.9167 12.9167 8.83333 14.1667 8.83333 15.4167H7.16667C7.16667 14.1667 5.08333 12.9167 5.08333 11.25C5.08333 9.64167 6.39167 8.33333 8 8.33333C9.60833 8.33333 10.9167 9.64167 10.9167 11.25ZM8.83333 16.25H7.16667V17.5H8.83333V16.25ZM13.8333 10.8333C13.8333 12.2333 13.3417 13.5083 12.5167 14.5167L13.7 15.7C14.3408 14.9522 14.8276 14.0853 15.1326 13.149C15.4375 12.2127 15.5547 11.2253 15.4773 10.2436C15.3998 9.26195 15.1294 8.30519 14.6814 7.42825C14.2334 6.5513 13.6167 5.77142 12.8667 5.13333L11.6833 6.31667C12.3545 6.86269 12.8957 7.55132 13.2676 8.33258C13.6395 9.11383 13.8328 9.96809 13.8333 10.8333ZM11.3333 4.16667L8 0.833334V3.33333C6.01088 3.33333 4.10322 4.12351 2.6967 5.53003C1.29018 6.93656 0.5 8.84421 0.5 10.8333C0.5 12.6917 1.18333 14.3917 2.3 15.7L3.48333 14.5167C2.62983 13.4792 2.16428 12.1768 2.16667 10.8333C2.16667 7.61667 4.78333 5 8 5V7.5L11.3333 4.16667Z" fill="white"/>
</svg>
