<svg width="16" height="20" viewBox="0 0 16 20" fill="none" xmlns="http://www.w3.org/2000/svg">
<path d="M0 7.58929C0 6.61458 0.340402 5.77195 1.02121 5.06138C1.70201 4.35082 2.52976 3.99554 3.50446 3.99554H11.7857L15.7143 0V16.4062C15.7143 17.3884 15.3739 18.2329 14.6931 18.9397C14.0123 19.6466 13.1845 20 12.2098 20H3.50446C2.52976 20 1.70201 19.6466 1.02121 18.9397C0.340402 18.2329 0 17.3884 0 16.4062V7.58929ZM13.75 16.0045L11.7857 13.9955V9.25223C11.7857 8.90997 11.6667 8.61607 11.4286 8.37054C11.1905 8.125 10.9003 8.00223 10.558 8.00223H5.15625C4.81399 8.00223 4.52381 8.125 4.28571 8.37054C4.04762 8.61607 3.92857 8.90997 3.92857 9.25223V14.7433C3.92857 15.0856 4.04948 15.3813 4.29129 15.6306C4.53311 15.8798 4.82143 16.0045 5.15625 16.0045H13.75Z" fill="#F44A25"/>
</svg>
